<svg width="31" height="31" viewBox="0 0 31 31" fill="none" xmlns="http://www.w3.org/2000/svg">
<path d="M15.5 6.02778C16.689 6.02778 17.6528 5.06395 17.6528 3.87501C17.6528 2.68606 16.689 1.72223 15.5 1.72223C14.3111 1.72223 13.3472 2.68606 13.3472 3.87501C13.3472 5.06395 14.3111 6.02778 15.5 6.02778Z" fill="#9266CC"/>
<path d="M15.0453 15.7325C17.726 15.5456 23.306 15.1573 23.306 12.6342C23.306 10.0569 17.8457 9.86575 15.5138 9.78394L15.2511 9.77447C6.36964 9.39988 7.89466 7.27466 8.73339 7.27466C8.96933 7.4865 9.75725 8.09272 11.067 8.09272C11.5165 8.09272 11.9858 8.02038 12.462 7.87658C12.5015 7.86582 12.5368 7.84307 12.5628 7.81145C12.5889 7.77984 12.6045 7.74091 12.6075 7.70005C12.6083 7.6592 12.5964 7.61911 12.5734 7.58533C12.5504 7.55154 12.5175 7.52573 12.4792 7.51147L11.2211 7.01461L13.1776 6.62797C13.2105 6.62204 13.2415 6.6082 13.2679 6.58766C13.2943 6.56711 13.3153 6.54046 13.3291 6.51C13.3418 6.48033 13.3464 6.44788 13.3426 6.41586C13.3389 6.38384 13.3268 6.35336 13.3076 6.32744C13.2628 6.26888 12.2149 4.77486 10.4186 4.77486C7.96527 4.77486 5.99161 6.05188 5.99161 8.25288C5.99161 10.9137 12.2967 11.6603 15.1168 11.6603C20.5177 11.6603 20.7915 12.3828 20.7915 12.5274C20.7915 13.2895 18.8738 13.7485 15.091 13.8923C11.0506 14.0456 8.43975 15.1848 8.43975 16.7951C8.43975 18.3124 10.3962 19.2157 14.9825 19.8159C17.0698 20.0889 19.5584 20.5478 19.5584 21.1825C19.5576 21.1902 19.3388 22.0289 15.0539 22.5646C11.0506 23.0666 10.5366 24.0086 10.5366 24.7724C10.5366 25.8066 11.9979 26.5136 15.1357 26.9958C17.5288 27.3635 18.1996 28.216 18.5216 28.6259C18.6577 28.7981 18.7653 28.9351 18.9513 28.9351C18.9686 28.9351 19.0116 28.9299 19.028 28.9264C19.2062 28.8851 19.3044 28.6957 19.2915 28.4184C19.2829 28.2126 19.0943 26.3887 15.3984 25.8307C13.0932 25.4829 12.9149 24.9283 12.9149 24.7664C12.9149 24.6855 13.0183 24.267 15.029 23.9854C15.308 23.9647 21.8834 23.4463 21.8834 21.1265C21.8834 19.2183 18.0411 18.5234 14.6518 17.912C12.9434 17.6028 10.8173 17.2188 10.8173 16.8158C10.8181 16.4558 11.5509 15.9753 15.0453 15.7325Z" fill="#9266CC"/>
<path d="M10.5977 6.32227C10.9591 6.32227 11.2521 6.15187 11.2521 5.94166C11.2521 5.73146 10.9591 5.56105 10.5977 5.56105C10.2363 5.56105 9.94325 5.73146 9.94325 5.94166C9.94325 6.15187 10.2363 6.32227 10.5977 6.32227Z" fill="white"/>
<path d="M13.7778 21.1885H14.6389V24.5227H13.7778V21.1885ZM16.3611 21.1885H17.2222V24.5227H16.3611V21.1885ZM13.7778 12.9812H14.6389V16.3155H13.7778V12.9812ZM16.3611 12.9812H17.2222V16.3155H16.3611V12.9812Z" fill="#9266CC"/>
<path d="M14.6389 17.0586L16.3611 17.385V10.0302L14.6389 9.95789V17.0586ZM16.3611 18.7627L14.6389 18.445V24.8663C15.1022 24.9223 15.8772 25.1048 16.3611 25.2262V18.7627ZM14.6389 26.1218V28.4167C14.6389 28.645 14.7296 28.8641 14.8911 29.0256C15.0526 29.1871 15.2716 29.2778 15.5 29.2778C15.7284 29.2778 15.9474 29.1871 16.1089 29.0256C16.2704 28.8641 16.3611 28.645 16.3611 28.4167V26.4731C15.6137 26.3018 15.1366 26.2337 14.6389 26.1218ZM16.3611 8.98827V4.58972C16.3611 4.36134 16.2704 4.14231 16.1089 3.98082C15.9474 3.81933 15.7284 3.72861 15.5 3.72861C15.2716 3.72861 15.0526 3.81933 14.8911 3.98082C14.7296 4.14231 14.6389 4.36134 14.6389 4.58972V8.90905L16.3611 8.98827Z" fill="#9266CC"/>
</svg>
